<?xml version="1.0" encoding="UTF-8"?>
<svg id="Layer_2" data-name="Layer 2" xmlns="http://www.w3.org/2000/svg" viewBox="0 0 34.76 10.53">
  <defs>
    <style>
      .cls-1 {
        fill: #fff;
      }

      .cls-2 {
        opacity: .5;
      }

      .cls-3 {
        opacity: .3;
      }
    </style>
  </defs>
  <g id="Layer_1-2" data-name="Layer 1">
    <g class="cls-3">
      <g>
        <path class="cls-1" d="M6.55,3.73c0,.43-.3.61-.65.81-.23.15-.48.33-.7.58-.22.28-.4,1.07-.49,2.16-.12,1.33-.23,2.47-1.26,2.47s-1.46-1.14-1.62-3.19c-.08-1.1-.39-1.54-.81-1.98C.24,3.79,0,3.51,0,3.01,0,2.36,1.25,1.95,3.09,1.95c2.64,0,3.46.75,3.46,1.78Z"/>
        <path class="cls-1" d="M20.18,3.73c0,.43-.3.61-.65.81-.23.15-.48.33-.69.58-.23.28-.41,1.07-.5,2.16-.12,1.33-.22,2.47-1.25,2.47s-1.47-1.14-1.62-3.19c-.09-1.1-.4-1.54-.82-1.98-.78-.79-1.02-1.07-1.02-1.57,0-.65,1.25-1.06,3.1-1.06,2.63,0,3.45.75,3.45,1.78Z"/>
        <path class="cls-1" d="M23.35,1.99c-2.03,0-3.53,2.19-3.53,5.17,0,1.2.64,2.59,1.49,2.59.61,0,.9-.6,1.18-1.15.22-.48.45-.94.87-.94.35,0,.66.41,1,.87.43.57.92,1.23,1.63,1.23.75,0,1.27-.74,1.27-1.8,0-2.86-1.46-5.97-3.91-5.97ZM23.7,4.02c.5,0,.92.2.92.79,0,.98-.53,1.06-1.28,1.06-.69,0-.93-.09-.93-.34,0-.85.57-1.51,1.29-1.51Z"/>
        <path class="cls-1" d="M34.76,6.37c0,2.37-.44,3.4-1.5,3.4-.58,0-1.06-.58-1.51-1.14-.41-.48-.79-.93-1.19-.93-.43,0-.5.48-.59.97-.09.54-.2,1.1-.74,1.1-.98,0-1.61-1.62-1.61-4.25,0-2.38.41-3.53,1.29-3.53.62,0,1.18.63,1.77,1.4.82,1.07,1.58,2.35,1.68.3.04-.8.14-1.7.83-1.7,1.13,0,1.57,2.49,1.57,4.38Z"/>
      </g>
      <path class="cls-1" d="M10.4,8.65c0,1.22-.36,1.88-1.05,1.88-.95,0-1.45-.95-1.45-2.26,0-1.2.39-1.87,1.15-1.87.99,0,1.35,1.22,1.35,2.25Z"/>
      <path class="cls-1" d="M13.06,8.65c0,1.22-.36,1.88-1.05,1.88-.95,0-1.46-.95-1.46-2.26,0-1.2.4-1.87,1.16-1.87.99,0,1.35,1.22,1.35,2.25Z"/>
      <path class="cls-1" d="M10.17,4.37c0,1.22-.37,1.88-1.05,1.88-.96,0-1.46-.95-1.46-2.26,0-1.2.4-1.87,1.15-1.87.99,0,1.36,1.22,1.36,2.25Z"/>
      <path class="cls-1" d="M12.82,4.37c0,1.22-.36,1.88-1.04,1.88-.96,0-1.46-.95-1.46-2.26,0-1.2.4-1.87,1.15-1.87.99,0,1.35,1.22,1.35,2.25Z"/>
      <path class="cls-1" d="M11.21,1.2c0,.64-.36,1-1.05,1-.96,0-1.46-.51-1.46-1.2,0-.64.4-1,1.15-1,1,0,1.36.65,1.36,1.2Z"/>
    </g>
    <g class="cls-2">
      <path class="cls-1" d="M10.36,8.65c0,1.22-.36,1.88-1.05,1.88-.95,0-1.45-.95-1.45-2.26,0-1.2.39-1.87,1.15-1.87.99,0,1.35,1.22,1.35,2.25Z"/>
      <path class="cls-1" d="M13.02,8.65c0,1.22-.36,1.88-1.05,1.88-.95,0-1.46-.95-1.46-2.26,0-1.2.4-1.87,1.16-1.87.99,0,1.35,1.22,1.35,2.25Z"/>
      <path class="cls-1" d="M10.13,4.37c0,1.22-.37,1.88-1.05,1.88-.96,0-1.46-.95-1.46-2.26,0-1.2.4-1.87,1.15-1.87.99,0,1.36,1.22,1.36,2.25Z"/>
      <path class="cls-1" d="M12.78,4.37c0,1.22-.36,1.88-1.04,1.88-.96,0-1.46-.95-1.46-2.26,0-1.2.4-1.87,1.15-1.87.99,0,1.35,1.22,1.35,2.25Z"/>
      <path class="cls-1" d="M11.17,1.2c0,.64-.36,1-1.05,1-.96,0-1.46-.51-1.46-1.2,0-.64.4-1,1.15-1,1,0,1.36.65,1.36,1.2Z"/>
    </g>
    <g>
      <g>
        <path class="cls-1" d="M1.83,6.56c-.08-1.1-.4-1.54-.82-1.98-.78-.79-1.02-1.07-1.02-1.57,0-.65,1.25-1.06,3.09-1.06,2.64,0,3.45.74,3.45,1.78,0,.43-.3.61-.65.82-.23.14-.48.32-.7.58-.23.28-.41,1.07-.49,2.16-.12,1.33-.23,2.47-1.26,2.47s-1.46-1.14-1.62-3.19ZM4.23,6.55c.06-.73.2-1.83.52-2.22.23-.28.5-.46.73-.6.35-.22.59-.36.59-.72,0-.54-1.19-.94-2.97-.94S.12,2.47.12,3.01c0,.38.25.53.6.76.22.13.46.28.66.5.41.44.5,1.51.58,2.28.13,1.33.22,2.36,1.14,2.36s1.02-1.03,1.14-2.36Z"/>
        <path class="cls-1" d="M15.47,6.56c-.08-1.1-.4-1.54-.82-1.98-.78-.79-1.02-1.07-1.02-1.57,0-.65,1.25-1.06,3.09-1.06,2.64,0,3.45.74,3.45,1.78,0,.43-.3.61-.65.82-.23.14-.48.32-.7.58-.23.28-.41,1.07-.49,2.16-.12,1.33-.23,2.47-1.26,2.47s-1.46-1.14-1.62-3.19ZM17.87,6.55c.06-.73.2-1.83.52-2.22.23-.28.5-.46.73-.6.35-.22.59-.36.59-.72,0-.54-1.19-.94-2.97-.94s-2.97.4-2.97.94c0,.38.25.53.6.76.22.13.46.28.66.5.41.44.5,1.51.58,2.28.13,1.33.22,2.36,1.14,2.36s1.02-1.03,1.14-2.36Z"/>
        <path class="cls-1" d="M24.36,8.53c-.34-.46-.65-.86-1-.86-.42,0-.65.46-.88.94-.28.55-.56,1.15-1.18,1.15-.85,0-1.49-1.39-1.49-2.59,0-2.97,1.5-5.17,3.53-5.17,2.45,0,3.91,3.11,3.91,5.97,0,1.06-.52,1.8-1.27,1.8-.71,0-1.2-.66-1.63-1.24ZM26.78,7.24c0-3.06-1.39-5.13-3.43-5.13s-3.41,2.13-3.41,5.05c0,.48.07,1.75,1.01,1.75.54,0,.79-.53,1.07-1.08.23-.48.49-1.01.98-1.01.41,0,.76.46,1.09.91.43.58.89,1.19,1.54,1.19.68,0,1.15-.68,1.15-1.68ZM21.93,4.81c0-.91.61-1.63,1.4-1.63s1.4.72,1.4,1.63c0,1.09-.64,1.19-1.4,1.19-.72,0-1.4-.1-1.4-1.19ZM24.62,4.81c0-.59-.42-.79-.92-.79-.72,0-1.28.66-1.28,1.51,0,.25.24.35.92.35.76,0,1.28-.08,1.28-1.07Z"/>
        <path class="cls-1" d="M27.62,5.52c0-2.38.41-3.53,1.28-3.53.62,0,1.19.64,1.77,1.4.82,1.07,1.58,2.35,1.68.3.04-.8.14-1.7.83-1.7,1.13,0,1.57,2.49,1.57,4.38,0,2.38-.44,3.41-1.5,3.41-.58,0-1.06-.59-1.51-1.14-.41-.48-.79-.94-1.19-.94-.43,0-.5.48-.59.97-.1.54-.2,1.1-.74,1.1-.98,0-1.61-1.62-1.61-4.26ZM29.49,7.93c.08-.49.18-1.07.71-1.07.46,0,.88.5,1.28.98.46.55.9,1.09,1.42,1.09.97,0,1.38-.97,1.38-3.29s-.38-3.54-1.09-3.54c-.58,0-.65.79-.71,1.6-.06.65-.11,1.33-.58,1.33-.42,0-.88-.66-1.33-1.32-.54-.79-1.1-1.61-1.67-1.61-.78,0-1.16,1.1-1.16,3.41,0,2.15.43,3.42,1.13,3.42.44,0,.53-.47.62-1.01Z"/>
      </g>
      <path class="cls-1" d="M7.9,8.27c0-1.2.4-1.87,1.15-1.87.99,0,1.36,1.22,1.36,2.25,0,1.22-.36,1.88-1.05,1.88-.96,0-1.46-.95-1.46-2.26ZM10.03,8.27c0-1.23-.33-1.8-.98-1.8s-1.06.64-1.06,1.8.37,1.82,1.09,1.82c.61,0,.96-.63.96-1.82Z"/>
      <path class="cls-1" d="M10.56,8.27c0-1.2.4-1.87,1.15-1.87.99,0,1.36,1.22,1.36,2.25,0,1.22-.36,1.88-1.05,1.88-.96,0-1.46-.95-1.46-2.26ZM12.69,8.27c0-1.23-.33-1.8-.98-1.8s-1.06.64-1.06,1.8.37,1.82,1.09,1.82c.61,0,.96-.63.96-1.82Z"/>
      <path class="cls-1" d="M7.66,3.99c0-1.2.4-1.87,1.15-1.87.99,0,1.36,1.22,1.36,2.25,0,1.22-.36,1.88-1.05,1.88-.96,0-1.46-.95-1.46-2.26ZM9.8,3.99c0-1.23-.33-1.8-.98-1.8s-1.06.64-1.06,1.8.37,1.82,1.09,1.82c.61,0,.96-.63.96-1.82Z"/>
      <path class="cls-1" d="M10.32,3.99c0-1.2.4-1.87,1.15-1.87.99,0,1.36,1.22,1.36,2.25,0,1.22-.36,1.88-1.05,1.88-.96,0-1.46-.95-1.46-2.26ZM12.45,3.99c0-1.23-.33-1.8-.98-1.8s-1.06.64-1.06,1.8.37,1.82,1.09,1.82c.61,0,.96-.63.96-1.82Z"/>
      <path class="cls-1" d="M8.7,1C8.7.36,9.1,0,9.86,0c.99,0,1.36.65,1.36,1.19,0,.65-.36,1-1.05,1-.96,0-1.46-.5-1.46-1.2ZM10.84,1c0-.65-.33-.96-.98-.96s-1.06.34-1.06.96.37.96,1.09.96c.61,0,.96-.33.96-.96Z"/>
    </g>
  </g>
</svg>